<?xml version="1.0" standalone="no"?>
<!DOCTYPE svg PUBLIC "-//W3C//DTD SVG 20010904//EN"
 "http://www.w3.org/TR/2001/REC-SVG-20010904/DTD/svg10.dtd">
<svg version="1.0" xmlns="http://www.w3.org/2000/svg"
 width="500.000000pt" height="500.000000pt" viewBox="0 0 500.000000 500.000000"
 preserveAspectRatio="xMidYMid meet">
<metadata>
Created by potrace 1.16, written by Peter Selinger 2001-2019
</metadata>
<g transform="translate(0.000000,500.000000) scale(0.100000,-0.100000)"
fill="#000000" stroke="none">
<path d="M2745 3766 c-95 -13 -195 -42 -195 -56 0 -5 4 -12 10 -15 19 -12 78
-123 94 -178 21 -71 21 -207 0 -278 -34 -114 -117 -218 -228 -283 -53 -31
-181 -66 -240 -66 -62 0 -152 26 -228 65 -54 28 -67 32 -72 20 -3 -8 -11 -64
-17 -125 -28 -259 52 -530 223 -748 52 -68 196 -195 210 -186 4 3 7 1 6 -5 -6
-22 200 -124 307 -151 135 -35 261 -45 378 -31 56 7 107 17 113 22 6 5 13 6
17 3 19 -19 335 119 330 144 -2 6 3 9 11 6 8 -3 21 5 30 18 9 13 18 21 20 18
9 -11 138 119 130 131 -4 7 -3 9 4 5 14 -8 72 60 120 143 200 341 196 745 -11
1078 -22 35 -43 60 -48 57 -5 -3 -6 1 -4 8 7 17 -121 151 -198 207 -140 102
-305 171 -469 195 -122 18 -168 19 -293 2z"/>
</g>
</svg>
